<svg width="127" height="98" viewBox="0 0 127 98" fill="none" xmlns="http://www.w3.org/2000/svg">
<path d="M10.252 42.192H20.108V48H2.728V17.112H10.252V42.192ZM44.6407 35.328C44.6407 36.032 44.5967 36.7653 44.5088 37.528H27.4807C27.5981 39.0533 28.0821 40.2267 28.9327 41.048C29.8127 41.84 30.8834 42.236 32.1448 42.236C34.0221 42.236 35.3274 41.444 36.0607 39.86H44.0688C43.6581 41.4733 42.9101 42.9253 41.8248 44.216C40.7688 45.5067 39.4341 46.5187 37.8208 47.252C36.2074 47.9853 34.4034 48.352 32.4087 48.352C30.0034 48.352 27.8621 47.8387 25.9847 46.812C24.1074 45.7853 22.6407 44.3187 21.5847 42.412C20.5287 40.5053 20.0007 38.276 20.0007 35.724C20.0007 33.172 20.5141 30.9427 21.5407 29.036C22.5967 27.1293 24.0634 25.6627 25.9407 24.636C27.8181 23.6093 29.9741 23.096 32.4087 23.096C34.7848 23.096 36.8968 23.5947 38.7448 24.592C40.5928 25.5893 42.0301 27.012 43.0568 28.86C44.1127 30.708 44.6407 32.864 44.6407 35.328ZM36.9408 33.348C36.9408 32.0573 36.5007 31.0307 35.6207 30.268C34.7407 29.5053 33.6408 29.124 32.3208 29.124C31.0594 29.124 29.9887 29.4907 29.1087 30.224C28.2581 30.9573 27.7301 31.9987 27.5247 33.348H36.9408ZM44.914 35.68C44.914 33.1573 45.3834 30.9427 46.322 29.036C47.29 27.1293 48.5954 25.6627 50.238 24.636C51.8807 23.6093 53.714 23.096 55.738 23.096C57.4687 23.096 58.9794 23.448 60.27 24.152C61.59 24.856 62.602 25.78 63.306 26.924V23.448H70.83V48H63.306V44.524C62.5727 45.668 61.546 46.592 60.226 47.296C58.9354 48 57.4247 48.352 55.694 48.352C53.6994 48.352 51.8807 47.8387 50.238 46.812C48.5954 45.756 47.29 44.2747 46.322 42.368C45.3834 40.432 44.914 38.2027 44.914 35.68ZM63.306 35.724C63.306 33.8467 62.778 32.3653 61.722 31.28C60.6954 30.1947 59.434 29.652 57.938 29.652C56.442 29.652 55.166 30.1947 54.11 31.28C53.0834 32.336 52.57 33.8027 52.57 35.68C52.57 37.5573 53.0834 39.0533 54.11 40.168C55.166 41.2533 56.442 41.796 57.938 41.796C59.434 41.796 60.6954 41.2533 61.722 40.168C62.778 39.0827 63.306 37.6013 63.306 35.724ZM81.5973 27.54C82.4773 26.1907 83.5773 25.1347 84.8973 24.372C86.2173 23.58 87.684 23.184 89.2973 23.184V31.148H87.2293C85.352 31.148 83.944 31.5587 83.0053 32.38C82.0666 33.172 81.5973 34.58 81.5973 36.604V48H74.0733V23.448H81.5973V27.54ZM105.654 23.184C108.528 23.184 110.816 24.1227 112.518 26C114.248 27.848 115.114 30.4 115.114 33.656V48H107.634V34.668C107.634 33.0253 107.208 31.7493 106.358 30.84C105.507 29.9307 104.363 29.476 102.926 29.476C101.488 29.476 100.344 29.9307 99.4936 30.84C98.643 31.7493 98.2176 33.0253 98.2176 34.668V48H90.6936V23.448H98.2176V26.704C98.9803 25.6187 100.007 24.768 101.298 24.152C102.588 23.5067 104.04 23.184 105.654 23.184Z" fill="#141B29"/>
<path d="M15.552 64.512C15.552 61.4613 16.212 58.748 17.532 56.372C18.852 53.9667 20.6853 52.104 23.032 50.784C25.408 49.4347 28.092 48.76 31.084 48.76C34.7506 48.76 37.8893 49.728 40.5 51.664C43.1106 53.6 44.856 56.24 45.736 59.584H37.464C36.848 58.2933 35.968 57.3107 34.824 56.636C33.7093 55.9613 32.4333 55.624 30.996 55.624C28.6786 55.624 26.8013 56.4307 25.364 58.044C23.9266 59.6573 23.208 61.8133 23.208 64.512C23.208 67.2107 23.9266 69.3667 25.364 70.98C26.8013 72.5933 28.6786 73.4 30.996 73.4C32.4333 73.4 33.7093 73.0627 34.824 72.388C35.968 71.7133 36.848 70.7307 37.464 69.44H45.736C44.856 72.784 43.1106 75.424 40.5 77.36C37.8893 79.2667 34.7506 80.22 31.084 80.22C28.092 80.22 25.408 79.56 23.032 78.24C20.6853 76.8907 18.852 75.028 17.532 72.652C16.212 70.276 15.552 67.5627 15.552 64.512ZM59.3196 80.352C56.9143 80.352 54.7436 79.8387 52.8076 78.812C50.9009 77.7853 49.3903 76.3187 48.2756 74.412C47.1903 72.5053 46.6476 70.276 46.6476 67.724C46.6476 65.2013 47.2049 62.9867 48.3196 61.08C49.4343 59.144 50.9596 57.6627 52.8956 56.636C54.8316 55.6093 57.0023 55.096 59.4076 55.096C61.8129 55.096 63.9836 55.6093 65.9196 56.636C67.8556 57.6627 69.3809 59.144 70.4956 61.08C71.6103 62.9867 72.1676 65.2013 72.1676 67.724C72.1676 70.2467 71.5956 72.476 70.4516 74.412C69.3369 76.3187 67.7969 77.7853 65.8316 78.812C63.8956 79.8387 61.7249 80.352 59.3196 80.352ZM59.3196 73.84C60.7569 73.84 61.9743 73.312 62.9716 72.256C63.9983 71.2 64.5116 69.6893 64.5116 67.724C64.5116 65.7587 64.0129 64.248 63.0156 63.192C62.0476 62.136 60.8449 61.608 59.4076 61.608C57.9409 61.608 56.7236 62.136 55.7556 63.192C54.7876 64.2187 54.3036 65.7293 54.3036 67.724C54.3036 69.6893 54.7729 71.2 55.7116 72.256C56.6796 73.312 57.8823 73.84 59.3196 73.84ZM72.4632 67.68C72.4632 65.1573 72.9326 62.9427 73.8712 61.036C74.8392 59.1293 76.1446 57.6627 77.7872 56.636C79.4299 55.6093 81.2632 55.096 83.2872 55.096C84.9006 55.096 86.3672 55.4333 87.6872 56.108C89.0366 56.7827 90.0926 57.692 90.8552 58.836V47.44H98.3792V80H90.8552V76.48C90.1512 77.6533 89.1392 78.592 87.8192 79.296C86.5286 80 85.0179 80.352 83.2872 80.352C81.2632 80.352 79.4299 79.8387 77.7872 78.812C76.1446 77.756 74.8392 76.2747 73.8712 74.368C72.9326 72.432 72.4632 70.2027 72.4632 67.68ZM90.8552 67.724C90.8552 65.8467 90.3272 64.3653 89.2712 63.28C88.2446 62.1947 86.9832 61.652 85.4872 61.652C83.9912 61.652 82.7152 62.1947 81.6592 63.28C80.6326 64.336 80.1192 65.8027 80.1192 67.68C80.1192 69.5573 80.6326 71.0533 81.6592 72.168C82.7152 73.2533 83.9912 73.796 85.4872 73.796C86.9832 73.796 88.2446 73.2533 89.2712 72.168C90.3272 71.0827 90.8552 69.6013 90.8552 67.724ZM124.767 67.328C124.767 68.032 124.723 68.7653 124.635 69.528H107.607C107.724 71.0533 108.208 72.2267 109.059 73.048C109.939 73.84 111.009 74.236 112.271 74.236C114.148 74.236 115.453 73.444 116.187 71.86H124.195C123.784 73.4733 123.036 74.9253 121.951 76.216C120.895 77.5067 119.56 78.5187 117.947 79.252C116.333 79.9853 114.529 80.352 112.535 80.352C110.129 80.352 107.988 79.8387 106.111 78.812C104.233 77.7853 102.767 76.3187 101.711 74.412C100.655 72.5053 100.127 70.276 100.127 67.724C100.127 65.172 100.64 62.9427 101.667 61.036C102.723 59.1293 104.189 57.6627 106.067 56.636C107.944 55.6093 110.1 55.096 112.535 55.096C114.911 55.096 117.023 55.5947 118.871 56.592C120.719 57.5893 122.156 59.012 123.183 60.86C124.239 62.708 124.767 64.864 124.767 67.328ZM117.067 65.348C117.067 64.0573 116.627 63.0307 115.747 62.268C114.867 61.5053 113.767 61.124 112.447 61.124C111.185 61.124 110.115 61.4907 109.235 62.224C108.384 62.9573 107.856 63.9987 107.651 65.348H117.067Z" fill="#141B29"/>
</svg>
