<svg width="127" height="98" viewBox="0 0 127 98" fill="none" xmlns="http://www.w3.org/2000/svg">
<path d="M10.252 42.192H20.108V48H2.728V17.112H10.252V42.192ZM44.6407 35.328C44.6407 36.032 44.5967 36.7653 44.5088 37.528H27.4807C27.5981 39.0533 28.0821 40.2267 28.9327 41.048C29.8127 41.84 30.8834 42.236 32.1448 42.236C34.0221 42.236 35.3274 41.444 36.0607 39.86H44.0688C43.6581 41.4733 42.9101 42.9253 41.8248 44.216C40.7688 45.5067 39.4341 46.5187 37.8208 47.252C36.2074 47.9853 34.4034 48.352 32.4087 48.352C30.0034 48.352 27.8621 47.8387 25.9847 46.812C24.1074 45.7853 22.6407 44.3187 21.5847 42.412C20.5287 40.5053 20.0007 38.276 20.0007 35.724C20.0007 33.172 20.5141 30.9427 21.5407 29.036C22.5967 27.1293 24.0634 25.6627 25.9407 24.636C27.8181 23.6093 29.9741 23.096 32.4087 23.096C34.7848 23.096 36.8968 23.5947 38.7448 24.592C40.5928 25.5893 42.0301 27.012 43.0568 28.86C44.1127 30.708 44.6407 32.864 44.6407 35.328ZM36.9408 33.348C36.9408 32.0573 36.5007 31.0307 35.6207 30.268C34.7407 29.5053 33.6408 29.124 32.3208 29.124C31.0594 29.124 29.9887 29.4907 29.1087 30.224C28.2581 30.9573 27.7301 31.9987 27.5247 33.348H36.9408ZM44.914 35.68C44.914 33.1573 45.3834 30.9427 46.322 29.036C47.29 27.1293 48.5954 25.6627 50.238 24.636C51.8807 23.6093 53.714 23.096 55.738 23.096C57.4687 23.096 58.9794 23.448 60.27 24.152C61.59 24.856 62.602 25.78 63.306 26.924V23.448H70.83V48H63.306V44.524C62.5727 45.668 61.546 46.592 60.226 47.296C58.9354 48 57.4247 48.352 55.694 48.352C53.6994 48.352 51.8807 47.8387 50.238 46.812C48.5954 45.756 47.29 44.2747 46.322 42.368C45.3834 40.432 44.914 38.2027 44.914 35.68ZM63.306 35.724C63.306 33.8467 62.778 32.3653 61.722 31.28C60.6954 30.1947 59.434 29.652 57.938 29.652C56.442 29.652 55.166 30.1947 54.11 31.28C53.0834 32.336 52.57 33.8027 52.57 35.68C52.57 37.5573 53.0834 39.0533 54.11 40.168C55.166 41.2533 56.442 41.796 57.938 41.796C59.434 41.796 60.6954 41.2533 61.722 40.168C62.778 39.0827 63.306 37.6013 63.306 35.724ZM81.5973 27.54C82.4773 26.1907 83.5773 25.1347 84.8973 24.372C86.2173 23.58 87.684 23.184 89.2973 23.184V31.148H87.2293C85.352 31.148 83.944 31.5587 83.0053 32.38C82.0666 33.172 81.5973 34.58 81.5973 36.604V48H74.0733V23.448H81.5973V27.54ZM105.654 23.184C108.528 23.184 110.816 24.1227 112.518 26C114.248 27.848 115.114 30.4 115.114 33.656V48H107.634V34.668C107.634 33.0253 107.208 31.7493 106.358 30.84C105.507 29.9307 104.363 29.476 102.926 29.476C101.488 29.476 100.344 29.9307 99.4936 30.84C98.643 31.7493 98.2176 33.0253 98.2176 34.668V48H90.6936V23.448H98.2176V26.704C98.9803 25.6187 100.007 24.768 101.298 24.152C102.588 23.5067 104.04 23.184 105.654 23.184Z" fill="#F8F7F4"/>
<path d="M10.252 42.192H9.252V43.192H10.252V42.192ZM20.108 42.192H21.108V41.192H20.108V42.192ZM20.108 48V49H21.108V48H20.108ZM2.728 48H1.728V49H2.728V48ZM2.728 17.112V16.112H1.728V17.112H2.728ZM10.252 17.112H11.252V16.112H10.252V17.112ZM10.252 43.192H20.108V41.192H10.252V43.192ZM19.108 42.192V48H21.108V42.192H19.108ZM20.108 47H2.728V49H20.108V47ZM3.728 48V17.112H1.728V48H3.728ZM2.728 18.112H10.252V16.112H2.728V18.112ZM9.252 17.112V42.192H11.252V17.112H9.252ZM44.5088 37.528V38.528H45.4L45.5022 37.6426L44.5088 37.528ZM27.4807 37.528V36.528H26.4009L26.4837 37.6047L27.4807 37.528ZM28.9327 41.048L28.2382 41.7674L28.2508 41.7796L28.2638 41.7913L28.9327 41.048ZM36.0607 39.86V38.86H35.4217L35.1533 39.4399L36.0607 39.86ZM44.0688 39.86L45.0378 40.1067L45.3552 38.86H44.0688V39.86ZM41.8248 44.216L41.0593 43.5723L41.0508 43.5828L41.8248 44.216ZM37.8208 47.252L38.2346 48.1624L37.8208 47.252ZM25.9847 46.812L25.5049 47.6894L25.5049 47.6894L25.9847 46.812ZM21.5847 42.412L22.4595 41.9275L22.4595 41.9275L21.5847 42.412ZM21.5407 29.036L20.6659 28.5515L20.6603 28.5619L21.5407 29.036ZM25.9407 24.636L26.4206 25.5134L26.4206 25.5134L25.9407 24.636ZM38.7448 24.592L38.2698 25.472L38.2698 25.472L38.7448 24.592ZM43.0568 28.86L42.1825 29.3457L42.1885 29.3561L43.0568 28.86ZM36.9408 33.348V34.348H37.9408V33.348H36.9408ZM35.6207 30.268L36.2757 29.5123L36.2757 29.5123L35.6207 30.268ZM29.1087 30.224L28.4686 29.4558L28.4621 29.4611L28.4558 29.4666L29.1087 30.224ZM27.5247 33.348L26.5361 33.1976L26.3611 34.348H27.5247V33.348ZM43.6407 35.328C43.6407 35.9904 43.5993 36.6854 43.5153 37.4134L45.5022 37.6426C45.5942 36.8453 45.6407 36.0736 45.6407 35.328H43.6407ZM44.5088 36.528H27.4807V38.528H44.5088V36.528ZM26.4837 37.6047C26.6141 39.3005 27.1647 40.731 28.2382 41.7674L29.6273 40.3286C28.9994 39.7223 28.582 38.8061 28.4778 37.4513L26.4837 37.6047ZM28.2638 41.7913C29.3401 42.76 30.654 43.236 32.1448 43.236V41.236C31.1128 41.236 30.2854 40.92 29.6017 40.3047L28.2638 41.7913ZM32.1448 43.236C33.2244 43.236 34.2091 43.0074 35.0505 42.4969C35.8965 41.9836 36.5304 41.2258 36.9682 40.2801L35.1533 39.4399C34.8578 40.0782 34.4723 40.5084 34.013 40.7871C33.5491 41.0686 32.9424 41.236 32.1448 41.236V43.236ZM36.0607 40.86H44.0688V38.86H36.0607V40.86ZM43.0997 39.6133C42.7266 41.0787 42.0491 42.3955 41.0594 43.5724L42.5901 44.8596C43.7711 43.4552 44.5895 41.8679 45.0378 40.1067L43.0997 39.6133ZM41.0508 43.5828C40.098 44.7472 38.8895 45.6677 37.4069 46.3416L38.2346 48.1624C39.9786 47.3696 41.4395 46.2661 42.5987 44.8492L41.0508 43.5828ZM37.4069 46.3416C35.939 47.0089 34.2786 47.352 32.4087 47.352V49.352C34.5282 49.352 36.4758 48.9618 38.2346 48.1624L37.4069 46.3416ZM32.4087 47.352C30.15 47.352 28.1773 46.8713 26.4646 45.9346L25.5049 47.6894C27.5469 48.8061 29.8569 49.352 32.4087 49.352V47.352ZM26.4646 45.9346C24.7567 45.0006 23.4256 43.6717 22.4595 41.9275L20.71 42.8965C21.8559 44.9656 23.4581 46.57 25.5049 47.6894L26.4646 45.9346ZM22.4595 41.9275C21.4987 40.1926 21.0007 38.1356 21.0007 35.724H19.0007C19.0007 38.4164 19.5588 40.818 20.71 42.8965L22.4595 41.9275ZM21.0007 35.724C21.0007 33.3079 21.4859 31.2471 22.4212 29.5101L20.6603 28.5619C19.5422 30.6383 19.0007 33.0361 19.0007 35.724H21.0007ZM22.4155 29.5205C23.3816 27.7763 24.7127 26.4474 26.4206 25.5134L25.4609 23.7586C23.4141 24.878 21.8119 26.4824 20.666 28.5515L22.4155 29.5205ZM26.4206 25.5134C28.1315 24.5777 30.1184 24.096 32.4087 24.096V22.096C29.8298 22.096 27.5046 22.641 25.4609 23.7586L26.4206 25.5134ZM32.4087 24.096C34.641 24.096 36.586 24.5633 38.2698 25.472L39.2197 23.712C37.2075 22.626 34.9285 22.096 32.4087 22.096V24.096ZM38.2698 25.472C39.9486 26.3781 41.248 27.6633 42.1826 29.3456L43.9309 28.3744C42.8122 26.3607 41.2369 24.8006 39.2197 23.712L38.2698 25.472ZM42.1885 29.3561C43.1454 31.0307 43.6407 33.0103 43.6407 35.328H45.6407C45.6407 32.7177 45.0801 30.3853 43.925 28.3639L42.1885 29.3561ZM37.9408 33.348C37.9408 31.8026 37.4002 30.4869 36.2757 29.5123L34.9658 31.0237C35.6013 31.5745 35.9408 32.3121 35.9408 33.348H37.9408ZM36.2757 29.5123C35.1896 28.571 33.8471 28.124 32.3208 28.124V30.124C33.4344 30.124 34.2919 30.4397 34.9658 31.0237L36.2757 29.5123ZM32.3208 28.124C30.8508 28.124 29.5468 28.5572 28.4686 29.4558L29.7489 30.9922C30.4307 30.4241 31.2681 30.124 32.3208 30.124V28.124ZM28.4558 29.4666C27.3876 30.3874 26.7693 31.6652 26.5361 33.1976L28.5134 33.4984C28.6909 32.3321 29.1285 31.5272 29.7617 30.9814L28.4558 29.4666ZM27.5247 34.348H36.9408V32.348H27.5247V34.348ZM46.322 29.036L45.4303 28.5833L45.4249 28.5943L46.322 29.036ZM50.238 24.636L50.768 25.484L50.768 25.484L50.238 24.636ZM60.27 24.152L59.7912 25.0299L59.7994 25.0344L60.27 24.152ZM63.306 26.924L62.4544 27.4481L64.306 30.457V26.924H63.306ZM63.306 23.448V22.448H62.306V23.448H63.306ZM70.83 23.448H71.83V22.448H70.83V23.448ZM70.83 48V49H71.83V48H70.83ZM63.306 48H62.306V49H63.306V48ZM63.306 44.524H64.306V41.111L62.4642 43.9843L63.306 44.524ZM60.226 47.296L59.7554 46.4136L59.7472 46.4181L60.226 47.296ZM50.238 46.812L49.6972 47.6532L49.708 47.66L50.238 46.812ZM46.322 42.368L45.4222 42.8043L45.4262 42.8125L45.4304 42.8207L46.322 42.368ZM61.722 31.28L60.9955 31.9673L61.0053 31.9774L61.722 31.28ZM54.11 31.28L53.3933 30.5826L53.393 30.5829L54.11 31.28ZM54.11 40.168L53.3745 40.8455L53.3838 40.8555L53.3933 40.8654L54.11 40.168ZM61.722 40.168L61.0052 39.4706L60.9956 39.4808L61.722 40.168ZM45.914 35.68C45.914 33.2821 46.3597 31.2235 47.2192 29.4777L45.4249 28.5943C44.407 30.6618 43.914 33.0326 43.914 35.68H45.914ZM47.2137 29.4887C48.1082 27.7269 49.2953 26.4044 50.768 25.484L49.708 23.788C47.8954 24.9209 46.4719 26.5318 45.4304 28.5833L47.2137 29.4887ZM50.768 25.484C52.2444 24.5612 53.8926 24.096 55.738 24.096V22.096C53.5354 22.096 51.5169 22.6574 49.708 23.788L50.768 25.484ZM55.738 24.096C57.3311 24.096 58.6714 24.4191 59.7912 25.0299L60.7489 23.2741C59.2873 22.4769 57.6063 22.096 55.738 22.096V24.096ZM59.7994 25.0344C60.9811 25.6646 61.8536 26.4719 62.4544 27.4481L64.1577 26.3999C63.3504 25.0881 62.1989 24.0474 60.7406 23.2696L59.7994 25.0344ZM64.306 26.924V23.448H62.306V26.924H64.306ZM63.306 24.448H70.83V22.448H63.306V24.448ZM69.83 23.448V48H71.83V23.448H69.83ZM70.83 47H63.306V49H70.83V47ZM64.306 48V44.524H62.306V48H64.306ZM62.4642 43.9843C61.8323 44.97 60.94 45.7819 59.7554 46.4136L60.6966 48.1784C62.1521 47.4021 63.3131 46.366 64.1479 45.0637L62.4642 43.9843ZM59.7472 46.4181C58.6274 47.0289 57.2871 47.352 55.694 47.352V49.352C57.5623 49.352 59.2433 48.9711 60.7049 48.1739L59.7472 46.4181ZM55.694 47.352C53.8809 47.352 52.2469 46.8883 50.768 45.964L49.708 47.66C51.5145 48.7891 53.5178 49.352 55.694 49.352V47.352ZM50.7788 45.9708C49.2995 45.0198 48.1092 43.6791 47.2137 41.9153L45.4304 42.8207C46.4709 44.8702 47.8912 46.4922 49.6973 47.6532L50.7788 45.9708ZM47.2218 41.9317C46.3596 40.1533 45.914 38.0775 45.914 35.68H43.914C43.914 38.3279 44.4072 40.7107 45.4222 42.8043L47.2218 41.9317ZM64.306 35.724C64.306 33.6521 63.7177 31.8971 62.4388 30.5826L61.0053 31.9774C61.8384 32.8336 62.306 34.0413 62.306 35.724H64.306ZM62.4485 30.5928C61.2327 29.3075 59.7085 28.652 57.938 28.652V30.652C59.1596 30.652 60.1581 31.0818 60.9956 31.9672L62.4485 30.5928ZM57.938 28.652C56.1684 28.652 54.635 29.3065 53.3933 30.5826L54.8268 31.9774C55.6971 31.0828 56.7157 30.652 57.938 30.652V28.652ZM53.393 30.5829C52.1387 31.8731 51.57 33.617 51.57 35.68H53.57C53.57 33.9883 54.028 32.7989 54.827 31.9771L53.393 30.5829ZM51.57 35.68C51.57 37.7456 52.1396 39.5047 53.3745 40.8455L54.8456 39.4905C54.0272 38.602 53.57 37.369 53.57 35.68H51.57ZM53.3933 40.8654C54.635 42.1415 56.1684 42.796 57.938 42.796V40.796C56.7157 40.796 55.6971 40.3652 54.8268 39.4706L53.3933 40.8654ZM57.938 42.796C59.7085 42.796 61.2327 42.1405 62.4485 40.8552L60.9956 39.4808C60.1581 40.3662 59.1596 40.796 57.938 40.796V42.796ZM62.4388 40.8654C63.7177 39.5509 64.306 37.7959 64.306 35.724H62.306C62.306 37.4067 61.8384 38.6144 61.0053 39.4706L62.4388 40.8654ZM81.5973 27.54H80.5973V30.9039L82.4349 28.0863L81.5973 27.54ZM84.8973 24.372L85.3976 25.2379L85.4047 25.2337L85.4118 25.2295L84.8973 24.372ZM89.2973 23.184H90.2973V22.184H89.2973V23.184ZM89.2973 31.148V32.148H90.2973V31.148H89.2973ZM83.0053 32.38L83.6502 33.1443L83.6571 33.1385L83.6638 33.1326L83.0053 32.38ZM81.5973 48V49H82.5973V48H81.5973ZM74.0733 48H73.0733V49H74.0733V48ZM74.0733 23.448V22.448H73.0733V23.448H74.0733ZM81.5973 23.448H82.5973V22.448H81.5973V23.448ZM82.4349 28.0863C83.2341 26.8608 84.2213 25.9175 85.3976 25.2379L84.397 23.5061C82.9333 24.3518 81.7205 25.5205 80.7597 26.9937L82.4349 28.0863ZM85.4118 25.2295C86.5688 24.5353 87.8561 24.184 89.2973 24.184V22.184C87.5118 22.184 85.8659 22.6247 84.3828 23.5145L85.4118 25.2295ZM88.2973 23.184V31.148H90.2973V23.184H88.2973ZM89.2973 30.148H87.2293V32.148H89.2973V30.148ZM87.2293 30.148C85.2282 30.148 83.5406 30.5829 82.3468 31.6274L83.6638 33.1326C84.3474 32.5345 85.4758 32.148 87.2293 32.148V30.148ZM82.3604 31.6157C81.0851 32.6918 80.5973 34.4717 80.5973 36.604H82.5973C82.5973 34.6883 83.0482 33.6522 83.6502 33.1443L82.3604 31.6157ZM80.5973 36.604V48H82.5973V36.604H80.5973ZM81.5973 47H74.0733V49H81.5973V47ZM75.0733 48V23.448H73.0733V48H75.0733ZM74.0733 24.448H81.5973V22.448H74.0733V24.448ZM80.5973 23.448V27.54H82.5973V23.448H80.5973ZM112.518 26L111.777 26.6715L111.782 26.6776L111.788 26.6836L112.518 26ZM115.114 48V49H116.114V48H115.114ZM107.634 48H106.634V49H107.634V48ZM106.358 30.84L105.627 31.5232L105.627 31.5232L106.358 30.84ZM99.4936 30.84L100.224 31.5232L100.224 31.5232L99.4936 30.84ZM98.2176 48V49H99.2176V48H98.2176ZM90.6936 48H89.6936V49H90.6936V48ZM90.6936 23.448V22.448H89.6936V23.448H90.6936ZM98.2176 23.448H99.2176V22.448H98.2176V23.448ZM98.2176 26.704H97.2176V29.8664L99.0358 27.2789L98.2176 26.704ZM101.298 24.152L101.728 25.0545L101.737 25.0505L101.745 25.0464L101.298 24.152ZM105.654 24.184C108.288 24.184 110.291 25.0326 111.777 26.6715L113.259 25.3285C111.341 23.2127 108.769 22.184 105.654 22.184V24.184ZM111.788 26.6836C113.299 28.2978 114.114 30.5787 114.114 33.656H116.114C116.114 30.2213 115.197 27.3982 113.248 25.3164L111.788 26.6836ZM114.114 33.656V48H116.114V33.656H114.114ZM115.114 47H107.634V49H115.114V47ZM108.634 48V34.668H106.634V48H108.634ZM108.634 34.668C108.634 32.8548 108.161 31.3043 107.088 30.1568L105.627 31.5232C106.255 32.1943 106.634 33.1959 106.634 34.668H108.634ZM107.088 30.1568C106.018 29.0136 104.593 28.476 102.926 28.476V30.476C104.133 30.476 104.996 30.8477 105.627 31.5232L107.088 30.1568ZM102.926 28.476C101.258 28.476 99.8328 29.0136 98.7634 30.1568L100.224 31.5232C100.856 30.8477 101.718 30.476 102.926 30.476V28.476ZM98.7634 30.1568C97.6899 31.3043 97.2176 32.8548 97.2176 34.668H99.2176C99.2176 33.1959 99.596 32.1943 100.224 31.5232L98.7634 30.1568ZM97.2176 34.668V48H99.2176V34.668H97.2176ZM98.2176 47H90.6936V49H98.2176V47ZM91.6936 48V23.448H89.6936V48H91.6936ZM90.6936 24.448H98.2176V22.448H90.6936V24.448ZM97.2176 23.448V26.704H99.2176V23.448H97.2176ZM99.0358 27.2789C99.692 26.3452 100.58 25.6024 101.728 25.0545L100.867 23.2495C99.4336 23.9336 98.2686 24.8921 97.3994 26.1291L99.0358 27.2789ZM101.745 25.0464C102.881 24.4784 104.177 24.184 105.654 24.184V22.184C103.904 22.184 102.296 22.535 100.85 23.2576L101.745 25.0464Z" fill="#36204E"/>
<path d="M15.552 64.512C15.552 61.4613 16.212 58.748 17.532 56.372C18.852 53.9667 20.6853 52.104 23.032 50.784C25.408 49.4347 28.092 48.76 31.084 48.76C34.7506 48.76 37.8893 49.728 40.5 51.664C43.1106 53.6 44.856 56.24 45.736 59.584H37.464C36.848 58.2933 35.968 57.3107 34.824 56.636C33.7093 55.9613 32.4333 55.624 30.996 55.624C28.6786 55.624 26.8013 56.4307 25.364 58.044C23.9266 59.6573 23.208 61.8133 23.208 64.512C23.208 67.2107 23.9266 69.3667 25.364 70.98C26.8013 72.5933 28.6786 73.4 30.996 73.4C32.4333 73.4 33.7093 73.0627 34.824 72.388C35.968 71.7133 36.848 70.7307 37.464 69.44H45.736C44.856 72.784 43.1106 75.424 40.5 77.36C37.8893 79.2667 34.7506 80.22 31.084 80.22C28.092 80.22 25.408 79.56 23.032 78.24C20.6853 76.8907 18.852 75.028 17.532 72.652C16.212 70.276 15.552 67.5627 15.552 64.512ZM59.3196 80.352C56.9143 80.352 54.7436 79.8387 52.8076 78.812C50.9009 77.7853 49.3903 76.3187 48.2756 74.412C47.1903 72.5053 46.6476 70.276 46.6476 67.724C46.6476 65.2013 47.2049 62.9867 48.3196 61.08C49.4343 59.144 50.9596 57.6627 52.8956 56.636C54.8316 55.6093 57.0023 55.096 59.4076 55.096C61.8129 55.096 63.9836 55.6093 65.9196 56.636C67.8556 57.6627 69.3809 59.144 70.4956 61.08C71.6103 62.9867 72.1676 65.2013 72.1676 67.724C72.1676 70.2467 71.5956 72.476 70.4516 74.412C69.3369 76.3187 67.7969 77.7853 65.8316 78.812C63.8956 79.8387 61.7249 80.352 59.3196 80.352ZM59.3196 73.84C60.7569 73.84 61.9743 73.312 62.9716 72.256C63.9983 71.2 64.5116 69.6893 64.5116 67.724C64.5116 65.7587 64.0129 64.248 63.0156 63.192C62.0476 62.136 60.8449 61.608 59.4076 61.608C57.9409 61.608 56.7236 62.136 55.7556 63.192C54.7876 64.2187 54.3036 65.7293 54.3036 67.724C54.3036 69.6893 54.7729 71.2 55.7116 72.256C56.6796 73.312 57.8823 73.84 59.3196 73.84ZM72.4632 67.68C72.4632 65.1573 72.9326 62.9427 73.8712 61.036C74.8392 59.1293 76.1446 57.6627 77.7872 56.636C79.4299 55.6093 81.2632 55.096 83.2872 55.096C84.9006 55.096 86.3672 55.4333 87.6872 56.108C89.0366 56.7827 90.0926 57.692 90.8552 58.836V47.44H98.3792V80H90.8552V76.48C90.1512 77.6533 89.1392 78.592 87.8192 79.296C86.5286 80 85.0179 80.352 83.2872 80.352C81.2632 80.352 79.4299 79.8387 77.7872 78.812C76.1446 77.756 74.8392 76.2747 73.8712 74.368C72.9326 72.432 72.4632 70.2027 72.4632 67.68ZM90.8552 67.724C90.8552 65.8467 90.3272 64.3653 89.2712 63.28C88.2446 62.1947 86.9832 61.652 85.4872 61.652C83.9912 61.652 82.7152 62.1947 81.6592 63.28C80.6326 64.336 80.1192 65.8027 80.1192 67.68C80.1192 69.5573 80.6326 71.0533 81.6592 72.168C82.7152 73.2533 83.9912 73.796 85.4872 73.796C86.9832 73.796 88.2446 73.2533 89.2712 72.168C90.3272 71.0827 90.8552 69.6013 90.8552 67.724ZM124.767 67.328C124.767 68.032 124.723 68.7653 124.635 69.528H107.607C107.724 71.0533 108.208 72.2267 109.059 73.048C109.939 73.84 111.009 74.236 112.271 74.236C114.148 74.236 115.453 73.444 116.187 71.86H124.195C123.784 73.4733 123.036 74.9253 121.951 76.216C120.895 77.5067 119.56 78.5187 117.947 79.252C116.333 79.9853 114.529 80.352 112.535 80.352C110.129 80.352 107.988 79.8387 106.111 78.812C104.233 77.7853 102.767 76.3187 101.711 74.412C100.655 72.5053 100.127 70.276 100.127 67.724C100.127 65.172 100.64 62.9427 101.667 61.036C102.723 59.1293 104.189 57.6627 106.067 56.636C107.944 55.6093 110.1 55.096 112.535 55.096C114.911 55.096 117.023 55.5947 118.871 56.592C120.719 57.5893 122.156 59.012 123.183 60.86C124.239 62.708 124.767 64.864 124.767 67.328ZM117.067 65.348C117.067 64.0573 116.627 63.0307 115.747 62.268C114.867 61.5053 113.767 61.124 112.447 61.124C111.185 61.124 110.115 61.4907 109.235 62.224C108.384 62.9573 107.856 63.9987 107.651 65.348H117.067Z" fill="#F8F7F4"/>
<path d="M17.532 56.372L18.4061 56.8576L18.4086 56.8531L17.532 56.372ZM23.032 50.784L23.5222 51.6556L23.5258 51.6536L23.032 50.784ZM40.5 51.664L41.0956 50.8608L41.0956 50.8608L40.5 51.664ZM45.736 59.584V60.584H47.0332L46.7031 59.3295L45.736 59.584ZM37.464 59.584L36.5615 60.0147L36.8332 60.584H37.464V59.584ZM34.824 56.636L34.3061 57.4916L34.316 57.4974L34.824 56.636ZM25.364 58.044L26.1106 58.7092L26.1106 58.7092L25.364 58.044ZM25.364 70.98L24.6173 71.6452L25.364 70.98ZM34.824 72.388L34.316 71.5266L34.3062 71.5325L34.824 72.388ZM37.464 69.44V68.44H36.8332L36.5615 69.0093L37.464 69.44ZM45.736 69.44L46.7031 69.6945L47.0332 68.44H45.736V69.44ZM40.5 77.36L41.0898 78.1676L41.0956 78.1632L40.5 77.36ZM23.032 78.24L22.5335 79.1069L22.5399 79.1106L22.5463 79.1142L23.032 78.24ZM17.532 72.652L18.4061 72.1664L18.4061 72.1664L17.532 72.652ZM16.552 64.512C16.552 61.6101 17.1784 59.0676 18.4061 56.8576L16.6578 55.8864C15.2456 58.4284 14.552 61.3126 14.552 64.512H16.552ZM18.4086 56.8531C19.6406 54.6082 21.3415 52.8822 23.5222 51.6556L22.5417 49.9124C20.0291 51.3258 18.0633 53.3252 16.6553 55.8909L18.4086 56.8531ZM23.5258 51.6536C25.7372 50.3977 28.2482 49.76 31.084 49.76V47.76C27.9357 47.76 25.0787 48.4716 22.5382 49.9144L23.5258 51.6536ZM31.084 49.76C34.5649 49.76 37.4877 50.6751 39.9043 52.4672L41.0956 50.8608C38.2909 48.7808 34.9364 47.76 31.084 47.76V49.76ZM39.9043 52.4672C42.3203 54.2588 43.9428 56.6992 44.7689 59.8385L46.7031 59.3295C45.7692 55.7808 43.901 52.9412 41.0956 50.8608L39.9043 52.4672ZM45.736 58.584H37.464V60.584H45.736V58.584ZM38.3665 59.1533C37.6716 57.6975 36.6607 56.5582 35.332 55.7746L34.316 57.4974C35.2753 58.0631 36.0243 58.8892 36.5615 60.0147L38.3665 59.1533ZM35.3418 55.7805C34.0551 55.0017 32.5965 54.624 30.996 54.624V56.624C32.2702 56.624 33.3635 56.9209 34.3062 57.4915L35.3418 55.7805ZM30.996 54.624C28.4167 54.624 26.2594 55.5357 24.6173 57.3788L26.1106 58.7092C27.3432 57.3257 28.9406 56.624 30.996 56.624V54.624ZM24.6173 57.3788C22.979 59.2177 22.208 61.6315 22.208 64.512H24.208C24.208 61.9952 24.8742 60.097 26.1106 58.7092L24.6173 57.3788ZM22.208 64.512C22.208 67.3925 22.979 69.8063 24.6173 71.6452L26.1106 70.3148C24.8742 68.927 24.208 67.0288 24.208 64.512H22.208ZM24.6173 71.6452C26.2594 73.4883 28.4167 74.4 30.996 74.4V72.4C28.9406 72.4 27.3432 71.6983 26.1106 70.3148L24.6173 71.6452ZM30.996 74.4C32.5965 74.4 34.0551 74.0223 35.3418 73.2435L34.3062 71.5325C33.3635 72.1031 32.2702 72.4 30.996 72.4V74.4ZM35.332 73.2494C36.6607 72.4658 37.6716 71.3265 38.3665 69.8707L36.5615 69.0093C36.0243 70.1348 35.2753 70.9609 34.316 71.5266L35.332 73.2494ZM37.464 70.44H45.736V68.44H37.464V70.44ZM44.7689 69.1855C43.9428 72.3248 42.3203 74.7652 39.9043 76.5568L41.0956 78.1632C43.901 76.0828 45.7692 73.2432 46.7031 69.6945L44.7689 69.1855ZM39.9102 76.5524C37.4932 78.3176 34.5683 79.22 31.084 79.22V81.22C34.933 81.22 38.2854 80.2157 41.0898 78.1676L39.9102 76.5524ZM31.084 79.22C28.2444 79.22 25.7305 78.5952 23.5176 77.3658L22.5463 79.1142C25.0855 80.5248 27.9396 81.22 31.084 81.22V79.22ZM23.5304 77.3731C21.342 76.1147 19.6383 74.3842 18.4061 72.1664L16.6578 73.1376C18.0657 75.6718 20.0286 77.6666 22.5335 79.1069L23.5304 77.3731ZM18.4061 72.1664C17.1784 69.9564 16.552 67.4139 16.552 64.512H14.552C14.552 67.7114 15.2456 70.5956 16.6578 73.1376L18.4061 72.1664ZM52.8076 78.812L52.3335 79.6925L52.3391 79.6955L52.8076 78.812ZM48.2756 74.412L47.4065 74.9067L47.4123 74.9167L48.2756 74.412ZM48.3196 61.08L49.1829 61.5847L49.1862 61.579L48.3196 61.08ZM52.8956 56.636L53.3641 57.5195L53.3641 57.5195L52.8956 56.636ZM65.9196 56.636L65.4511 57.5195L65.4511 57.5195L65.9196 56.636ZM70.4956 61.08L69.629 61.579L69.6323 61.5847L70.4956 61.08ZM70.4516 74.412L69.5907 73.9033L69.5883 73.9073L70.4516 74.412ZM65.8316 78.812L65.3686 77.9256L65.3631 77.9285L65.8316 78.812ZM62.9716 72.256L62.2546 71.5589L62.2496 71.5641L62.2446 71.5694L62.9716 72.256ZM63.0156 63.192L62.2784 63.8677L62.2835 63.8732L62.2886 63.8786L63.0156 63.192ZM55.7556 63.192L56.4833 63.8781L56.4928 63.8677L55.7556 63.192ZM55.7116 72.256L54.9642 72.9204L54.9693 72.9261L54.9744 72.9317L55.7116 72.256ZM59.3196 79.352C57.0613 79.352 55.0541 78.8714 53.2761 77.9285L52.3391 79.6955C54.4331 80.8059 56.7672 81.352 59.3196 81.352V79.352ZM53.2817 77.9315C51.5402 76.9938 50.1628 75.6587 49.1389 73.9073L47.4123 74.9167C48.6178 76.9787 50.2617 78.5769 52.3335 79.6925L53.2817 77.9315ZM49.1447 73.9173C48.1583 72.1844 47.6476 70.1311 47.6476 67.724H45.6476C45.6476 70.4209 46.2223 72.8263 47.4065 74.9067L49.1447 73.9173ZM47.6476 67.724C47.6476 65.3531 48.1699 63.3175 49.1829 61.5847L47.4563 60.5753C46.24 62.6558 45.6476 65.0496 45.6476 67.724H47.6476ZM49.1862 61.579C50.2089 59.8027 51.5977 58.4562 53.3641 57.5195L52.4271 55.7525C50.3215 56.8692 48.6596 58.4853 47.453 60.581L49.1862 61.579ZM53.3641 57.5195C55.1421 56.5766 57.1493 56.096 59.4076 56.096V54.096C56.8552 54.096 54.5211 54.6421 52.4271 55.7525L53.3641 57.5195ZM59.4076 56.096C61.6659 56.096 63.6731 56.5766 65.4511 57.5195L66.3881 55.7525C64.2941 54.6421 61.96 54.096 59.4076 54.096V56.096ZM65.4511 57.5195C67.2175 58.4562 68.6063 59.8027 69.629 61.579L71.3622 60.581C70.1556 58.4853 68.4937 56.8692 66.3881 55.7525L65.4511 57.5195ZM69.6323 61.5847C70.6453 63.3175 71.1676 65.3531 71.1676 67.724H73.1676C73.1676 65.0496 72.5752 62.6558 71.3589 60.5753L69.6323 61.5847ZM71.1676 67.724C71.1676 70.09 70.6329 72.1395 69.5907 73.9033L71.3125 74.9207C72.5583 72.8125 73.1676 70.4033 73.1676 67.724H71.1676ZM69.5883 73.9073C68.5689 75.651 67.168 76.9857 65.3686 77.9257L66.2946 79.6983C68.4259 78.585 70.1049 76.9864 71.3149 74.9167L69.5883 73.9073ZM65.3631 77.9285C63.5851 78.8714 61.5779 79.352 59.3196 79.352V81.352C61.872 81.352 64.2061 80.8059 66.3001 79.6955L65.3631 77.9285ZM59.3196 74.84C61.0353 74.84 62.5146 74.1962 63.6986 72.9426L62.2446 71.5694C61.4339 72.4278 60.4785 72.84 59.3196 72.84V74.84ZM63.6886 72.9531C64.9508 71.6548 65.5116 69.8601 65.5116 67.724H63.5116C63.5116 69.5185 63.0457 70.7452 62.2546 71.5589L63.6886 72.9531ZM65.5116 67.724C65.5116 65.5952 64.9695 63.8045 63.7426 62.5054L62.2886 63.8786C63.0563 64.6915 63.5116 65.9222 63.5116 67.724H65.5116ZM63.7528 62.5163C62.5946 61.2529 61.1242 60.608 59.4076 60.608V62.608C60.5657 62.608 61.5006 63.0191 62.2784 63.8677L63.7528 62.5163ZM59.4076 60.608C57.6682 60.608 56.1809 61.2481 55.0184 62.5163L56.4928 63.8677C57.2663 63.0239 58.2137 62.608 59.4076 62.608V60.608ZM55.028 62.506C53.824 63.783 53.3036 65.58 53.3036 67.724H55.3036C55.3036 65.8786 55.7512 64.6543 56.4832 63.878L55.028 62.506ZM53.3036 67.724C53.3036 69.8385 53.8088 71.6206 54.9642 72.9204L56.459 71.5916C55.7371 70.7794 55.3036 69.5402 55.3036 67.724H53.3036ZM54.9744 72.9317C56.1326 74.1951 57.603 74.84 59.3196 74.84V72.84C58.1615 72.84 57.2266 72.4289 56.4488 71.5803L54.9744 72.9317ZM73.8712 61.036L72.9795 60.5833L72.9741 60.5943L73.8712 61.036ZM77.7872 56.636L78.3172 57.484L78.3172 57.484L77.7872 56.636ZM87.6872 56.108L87.2321 56.9985L87.24 57.0024L87.6872 56.108ZM90.8552 58.836L90.0232 59.3907L91.8552 62.1388V58.836H90.8552ZM90.8552 47.44V46.44H89.8552V47.44H90.8552ZM98.3792 47.44H99.3792V46.44H98.3792V47.44ZM98.3792 80V81H99.3792V80H98.3792ZM90.8552 80H89.8552V81H90.8552V80ZM90.8552 76.48H91.8552V72.8697L89.9977 75.9655L90.8552 76.48ZM87.8192 79.296L87.3486 78.4136L87.3404 78.4181L87.8192 79.296ZM77.7872 78.812L77.2464 79.6532L77.2572 79.66L77.7872 78.812ZM73.8712 74.368L72.9714 74.8043L72.9754 74.8125L72.9796 74.8207L73.8712 74.368ZM89.2712 63.28L88.5447 63.9673L88.5545 63.9774L89.2712 63.28ZM81.6592 63.28L80.9425 62.5826L80.9422 62.5829L81.6592 63.28ZM81.6592 72.168L80.9237 72.8455L80.933 72.8555L80.9425 72.8654L81.6592 72.168ZM89.2712 72.168L88.5544 71.4706L88.5448 71.4808L89.2712 72.168ZM73.4632 67.68C73.4632 65.2821 73.9089 63.2235 74.7684 61.4777L72.9741 60.5943C71.9562 62.6618 71.4632 65.0326 71.4632 67.68H73.4632ZM74.7629 61.4887C75.6573 59.7269 76.8445 58.4044 78.3172 57.484L77.2572 55.788C75.4446 56.9209 74.0211 58.5318 72.9796 60.5833L74.7629 61.4887ZM78.3172 57.484C79.7936 56.5612 81.4418 56.096 83.2872 56.096V54.096C81.0846 54.096 79.0661 54.6574 77.2572 55.788L78.3172 57.484ZM83.2872 56.096C84.7566 56.096 86.0652 56.402 87.2321 56.9984L88.1423 55.2176C86.6693 54.4647 85.0445 54.096 83.2872 54.096V56.096ZM87.24 57.0024C88.4492 57.607 89.3662 58.4053 90.0232 59.3907L91.6873 58.2813C90.8189 56.9787 89.6239 55.9583 88.1344 55.2136L87.24 57.0024ZM91.8552 58.836V47.44H89.8552V58.836H91.8552ZM90.8552 48.44H98.3792V46.44H90.8552V48.44ZM97.3792 47.44V80H99.3792V47.44H97.3792ZM98.3792 79H90.8552V81H98.3792V79ZM91.8552 80V76.48H89.8552V80H91.8552ZM89.9977 75.9655C89.3956 76.9691 88.5241 77.7867 87.3486 78.4136L88.2898 80.1784C89.7543 79.3973 90.9069 78.3376 91.7127 76.9945L89.9977 75.9655ZM87.3404 78.4181C86.2206 79.0289 84.8803 79.352 83.2872 79.352V81.352C85.1555 81.352 86.8365 80.9711 88.2981 80.1739L87.3404 78.4181ZM83.2872 79.352C81.4418 79.352 79.7936 78.8868 78.3172 77.964L77.2572 79.66C79.0661 80.7906 81.0846 81.352 83.2872 81.352V79.352ZM78.328 77.9708C76.8487 77.0198 75.6584 75.6791 74.7629 73.9153L72.9796 74.8207C74.0201 76.8702 75.4404 78.4922 77.2465 79.6532L78.328 77.9708ZM74.771 73.9317C73.9088 72.1533 73.4632 70.0775 73.4632 67.68H71.4632C71.4632 70.3279 71.9564 72.7107 72.9714 74.8043L74.771 73.9317ZM91.8552 67.724C91.8552 65.6521 91.2669 63.8971 89.988 62.5826L88.5545 63.9774C89.3876 64.8336 89.8552 66.0413 89.8552 67.724H91.8552ZM89.9977 62.5928C88.7819 61.3075 87.2577 60.652 85.4872 60.652V62.652C86.7088 62.652 87.7073 63.0818 88.5448 63.9672L89.9977 62.5928ZM85.4872 60.652C83.7176 60.652 82.1842 61.3065 80.9425 62.5826L82.376 63.9774C83.2463 63.0828 84.2649 62.652 85.4872 62.652V60.652ZM80.9422 62.5829C79.6879 63.8731 79.1192 65.617 79.1192 67.68H81.1192C81.1192 65.9883 81.5772 64.7989 82.3762 63.9771L80.9422 62.5829ZM79.1192 67.68C79.1192 69.7456 79.6888 71.5047 80.9237 72.8455L82.3948 71.4905C81.5763 70.602 81.1192 69.369 81.1192 67.68H79.1192ZM80.9425 72.8654C82.1842 74.1415 83.7176 74.796 85.4872 74.796V72.796C84.2649 72.796 83.2463 72.3652 82.376 71.4706L80.9425 72.8654ZM85.4872 74.796C87.2577 74.796 88.7819 74.1405 89.9977 72.8552L88.5448 71.4808C87.7073 72.3662 86.7088 72.796 85.4872 72.796V74.796ZM89.988 72.8654C91.2669 71.5509 91.8552 69.7959 91.8552 67.724H89.8552C89.8552 69.4067 89.3876 70.6144 88.5545 71.4706L89.988 72.8654ZM124.635 69.528V70.528H125.526L125.628 69.6426L124.635 69.528ZM107.607 69.528V68.528H106.527L106.609 69.6047L107.607 69.528ZM109.059 73.048L108.364 73.7674L108.377 73.7796L108.39 73.7913L109.059 73.048ZM116.187 71.86V70.86H115.548L115.279 71.4399L116.187 71.86ZM124.195 71.86L125.164 72.1067L125.481 70.86H124.195V71.86ZM121.951 76.216L121.185 75.5723L121.177 75.5828L121.951 76.216ZM117.947 79.252L118.36 80.1624L117.947 79.252ZM106.111 78.812L105.631 79.6894L105.631 79.6894L106.111 78.812ZM101.711 74.412L102.585 73.9275L102.585 73.9275L101.711 74.412ZM101.667 61.036L100.792 60.5515L100.786 60.5619L101.667 61.036ZM106.067 56.636L106.546 57.5134L106.546 57.5134L106.067 56.636ZM118.871 56.592L118.396 57.472L118.396 57.472L118.871 56.592ZM123.183 60.86L122.308 61.3457L122.314 61.3561L123.183 60.86ZM117.067 65.348V66.348H118.067V65.348H117.067ZM115.747 62.268L116.401 61.5123L116.401 61.5123L115.747 62.268ZM109.235 62.224L108.594 61.4558L108.588 61.4611L108.582 61.4666L109.235 62.224ZM107.651 65.348L106.662 65.1976L106.487 66.348H107.651V65.348ZM123.767 67.328C123.767 67.9904 123.725 68.6854 123.641 69.4134L125.628 69.6426C125.72 68.8453 125.767 68.0736 125.767 67.328H123.767ZM124.635 68.528H107.607V70.528H124.635V68.528ZM106.609 69.6047C106.74 71.3005 107.29 72.731 108.364 73.7674L109.753 72.3286C109.125 71.7223 108.708 70.8061 108.604 69.4513L106.609 69.6047ZM108.39 73.7913C109.466 74.76 110.78 75.236 112.271 75.236V73.236C111.239 73.236 110.411 72.92 109.727 72.3047L108.39 73.7913ZM112.271 75.236C113.35 75.236 114.335 75.0074 115.176 74.4969C116.022 73.9836 116.656 73.2258 117.094 72.2801L115.279 71.4399C114.984 72.0782 114.598 72.5084 114.139 72.7871C113.675 73.0686 113.068 73.236 112.271 73.236V75.236ZM116.187 72.86H124.195V70.86H116.187V72.86ZM123.225 71.6133C122.852 73.0787 122.175 74.3955 121.185 75.5724L122.716 76.8596C123.897 75.4552 124.715 73.8679 125.164 72.1067L123.225 71.6133ZM121.177 75.5828C120.224 76.7472 119.015 77.6677 117.533 78.3416L118.36 80.1624C120.104 79.3696 121.565 78.2661 122.724 76.8492L121.177 75.5828ZM117.533 78.3416C116.065 79.0089 114.404 79.352 112.535 79.352V81.352C114.654 81.352 116.602 80.9618 118.36 80.1624L117.533 78.3416ZM112.535 79.352C110.276 79.352 108.303 78.8713 106.59 77.9346L105.631 79.6894C107.673 80.8061 109.983 81.352 112.535 81.352V79.352ZM106.59 77.9346C104.882 77.0006 103.551 75.6717 102.585 73.9275L100.836 74.8965C101.982 76.9656 103.584 78.57 105.631 79.6894L106.59 77.9346ZM102.585 73.9275C101.624 72.1926 101.127 70.1356 101.127 67.724H99.1265C99.1265 70.4164 99.6846 72.818 100.836 74.8965L102.585 73.9275ZM101.127 67.724C101.127 65.3079 101.612 63.2471 102.547 61.5101L100.786 60.5619C99.668 62.6383 99.1265 65.0361 99.1265 67.724H101.127ZM102.541 61.5205C103.507 59.7763 104.838 58.4474 106.546 57.5134L105.587 55.7586C103.54 56.878 101.938 58.4824 100.792 60.5515L102.541 61.5205ZM106.546 57.5134C108.257 56.5777 110.244 56.096 112.535 56.096V54.096C109.956 54.096 107.63 54.641 105.587 55.7586L106.546 57.5134ZM112.535 56.096C114.767 56.096 116.712 56.5633 118.396 57.472L119.345 55.712C117.333 54.626 115.054 54.096 112.535 54.096V56.096ZM118.396 57.472C120.074 58.3781 121.374 59.6633 122.308 61.3456L124.057 60.3744C122.938 58.3607 121.363 56.8006 119.345 55.712L118.396 57.472ZM122.314 61.3561C123.271 63.0307 123.767 65.0103 123.767 67.328H125.767C125.767 64.7177 125.206 62.3853 124.051 60.3639L122.314 61.3561ZM118.067 65.348C118.067 63.8026 117.526 62.4869 116.401 61.5123L115.092 63.0237C115.727 63.5745 116.067 64.3121 116.067 65.348H118.067ZM116.401 61.5123C115.315 60.571 113.973 60.124 112.447 60.124V62.124C113.56 62.124 114.418 62.4397 115.092 63.0237L116.401 61.5123ZM112.447 60.124C110.977 60.124 109.673 60.5572 108.594 61.4558L109.875 62.9922C110.556 62.4241 111.394 62.124 112.447 62.124V60.124ZM108.582 61.4666C107.513 62.3874 106.895 63.6652 106.662 65.1976L108.639 65.4984C108.817 64.3321 109.254 63.5272 109.887 62.9814L108.582 61.4666ZM107.651 66.348H117.067V64.348H107.651V66.348Z" fill="#36204E"/>
</svg>
